<svg xmlns="http://www.w3.org/2000/svg" x="0px" y="0px" viewBox="0 0 48 48">
<path d="M24.007 47c8.832 0 16 .227 16 .493 0 .28-7.168.507-16 .507-8.832 0-16-.227-16-.507C8.007 47.227 15.175 47 24.007 47zM13.007 41v-2.507c0-1.48.96-2.88 3.003-3.333-.004-.053-.005-.107-.005-.16 0-.32.077-.627.215-.907-2.715.44-4.212 2.28-4.212 4.4V40.8l-4-.8c-1.387-.28-3-1.587-3-3 0-1.28.567-2.693 1-4l4-12c0-7.68 3.92-16.307 11.999-16.96l.001 8.453c0 .28.224.507.5.507.275 0 .5-.227.5-.507V4c0-.427.341-1 1-1h1c.659 0 1 .573 1 1v8.493c0 .28.224.507.5.507.275 0 .5-.227.5-.507V4.04c8.079.653 12 9.28 12 16.96l4 12c.433 1.307 1 2.72 1 4 0 1.413-1.613 2.72-3 3l-4.013.8v-2.307c0-2.12-1.501-3.947-4.2-4.387.137.267.215.573.215.893 0 .053-.003.107-.007.16 2.028.453 2.992 1.853 2.992 3.333v2.52C33.134 43.32 29.547 44 25.007 44h-1C19.459 44 15.869 43.307 13.007 41zM22.523 41.067c-.184-.52-2.975-.36-6.057-1.96-.491-.253-1.095-.053-1.347.427-.256.493-.061 1.093.431 1.347C19.254 42.787 22.706 41.587 22.523 41.067zM24.507 39l3.5-3h-7L24.507 39zM19.009 35c0-.547-.449-1-1.001-1s-1.001.453-1.001 1c0 .547.449 1 1.001 1S19.009 35.547 19.009 35zM32.007 35c0-.547-.449-1-1.001-1-.552 0-1.001.453-1.001 1 0 .547.449 1 1.001 1C31.558 36 32.007 35.547 32.007 35zM29.271 34h-1.264v-1.507c0-.267-.225-.493-.5-.493-.276 0-.5.227-.5.493V34h-1v-3.507c0-.267-.225-.493-.5-.493-.276 0-.5.227-.5.493V34h-1v-3.507c0-.267-.225-.493-.5-.493-.276 0-.5.227-.5.493V34h-1v-1.507c0-.267-.225-.493-.5-.493-.276 0-.5.227-.5.493V34h-1.267c.171.293.269.64.269 1h8.993C29.003 34.64 29.101 34.293 29.271 34zM32.206 33.4l1.801-5.4-7-1 .908 1.267L33.007 29l-1.368 4.107C31.846 33.173 32.037 33.267 32.206 33.4zM17.373 33.107L16.007 29l5.091-.733L22.007 27l-7 1 1.799 5.4C16.977 33.267 17.167 33.173 17.373 33.107zM26.007 28.613v-1.12c0-.827-.673-1.493-1.501-1.493-.828 0-1.501.667-1.501 1.493l.001 1.12c0 .213.176.387.391.387h2.22C25.831 29 26.007 28.827 26.007 28.613zM24.507 24c1.068 0 1.5 2 5.277 2 1.648 0 4.223-.507 4.223-2 0-.213-.019-.427-.055-.64C33.574 24.573 31.291 25 29.785 25c-3.777 0-4.209-2-5.277-2s-1.5 2-5.277 2c-1.508 0-3.791-.427-4.169-1.64-.036.213-.053.427-.053.64 0 1.493 2.575 2 4.223 2C23.007 26 23.439 24 24.507 24zM17.518 13.933h-.024.029H17.518c1.643-.08 3.384.107 4.989.56-1.001-.507-2.033-.893-3.129-1.147-2.545-.587-4.24-.24-6.073 1.693-.663.707-1.269 1.6-1.697 2.467-.481.973-.843 1.947-1.1 2.987C11.654 18.013 14.455 14.133 17.518 13.933zM18.011 16.88c1.189.053 2.224.413 3.367.707C22.407 17.867 23.443 18 24.509 18c.989 0 1.933-.12 2.893-.347 1.232-.307 2.319-.72 3.603-.773 2.437-.067 5.459 1.307 6.504 3.613-.301-.867-.832-1.613-1.504-2.24-1.649-1.52-3.923-2.347-6.168-2.08-.895.107-1.761.36-2.643.547C26.286 16.907 25.437 17 24.507 17c-.873 0-1.679-.08-2.536-.253-1.143-.213-2.273-.6-3.445-.627-1.487-.027-2.881.36-4.16 1.12-.659.4-1.205.827-1.727 1.387-.485.52-.912 1.187-1.133 1.867C12.477 18.2 15.635 16.827 18.011 16.88zM37.201 17.133c-.377-.68-.791-1.307-1.307-1.88-.537-.6-1.156-1.16-1.871-1.547-1.509-.813-2.881-.747-4.523-.333-1.048.267-2.031.64-2.993 1.12 1.593-.453 3.357-.64 4.988-.56h-.004.029-.025c3.069.2 5.852 4.093 7.012 6.56C38.213 19.333 37.793 18.187 37.201 17.133zM19.454 7.893c.492-.24.693-.84.452-1.333s-.844-.707-1.339-.453c-3.731 1.853-3.944 5.84-3.415 6C15.679 12.267 16.334 9.427 19.454 7.893z"></path>
</svg>